<svg xmlns="http://www.w3.org/2000/svg" viewBox="0 0 377.94 470.47">
  <defs>
    <style>
      .cls-1 {
        fill: #b0bcaf;
      }

      .cls-2 {
        fill: #212529;
      }
    </style>
  </defs>
  <title>compose</title>
  <g id="Layer_3" data-name="Layer 3">
    <g id="Outline">
      <path class="cls-1" d="M81.48,378a222.93,222.93,0,0,0,28.3,4.79c13.81,1.63,24.48,7.63,31.59,19.86,3.28,5.64,7.13,11,11,16.28,15.46,21.41,34.11,38.69,60.34,46,49.43,13.86,96.19,8.65,139.76-19.48,8.61-5.55,15.91-12.42,20.27-21.81q14.3-30.81,28.19-61.8a212.93,212.93,0,0,0,17.75-70.46c.62-7,1.66-14,1.76-21,.33-21.5-2.53-42.61-10.4-62.71-6.68-17.05-14.25-33.76-24.64-49-8.31-12.13-11.46-25.43-10.82-39.92.56-12.84.88-25.68,1.26-38.52a50.46,50.46,0,0,0-11.87-35c-13.19-15.92-30.14-26.92-48-36.49-11.5-6.16-24.42-5.52-37.06-4.56-10.89.83-21.64,1.32-32.52-1A76.28,76.28,0,0,0,225.8,2c-7.7.48-15.28,2.72-23,3.39-7.53.66-13.62,3.76-19.2,8.52-11.73,10-21.15,22-29.19,35.05-12.55,20.42-20.05,43-27.13,65.66-4.29,13.75-7,27.76-5,42.25.63,4.78,2.16,9.43,2.94,14.2,1.14,7,1.41,14.21,3.12,21.06,1.54,6.1.67,11.29-2.89,16.11-8,10.82-16.43,21.28-26.95,29.86-8.55,7-17.42,13.61-25.39,21.19-18.85,17.89-28.69,40.22-30.44,66.05-.53,7.88.11,15.84,3.19,23.23C52.53,364.6,65.15,373.86,81.48,378Z" transform="translate(-42.48 -1.85)"/>
      <path class="cls-2" d="M52.37,454.94V99.16l79.22-79.22H377.24v94.2h-4V24H134.43V102h-78V450.92H373.22V283.56h4V454.94ZM59.22,98h71.2V26.79Z" transform="translate(-42.48 -1.85)"/>
      <rect class="cls-2" x="45.88" y="142.1" width="75.99" height="4.02"/>
      <rect class="cls-2" x="45.88" y="172.88" width="128.02" height="4.02"/>
      <rect class="cls-2" x="143.87" y="142.1" width="4.02" height="4.02"/>
      <rect class="cls-2" x="169.88" y="142.1" width="4.02" height="4.02"/>
      <path class="cls-2" d="M97.46,425.2c5-8.88,18.57-31.8,42.49-61.12l.59-.73.38-1.34A448.22,448.22,0,0,1,164,301.35c20.27-43.68,43.08-74.34,67.79-91.14l2.67-1.81-.5,3.19c-1.39,8.74-1.43,16.12-.12,21.94l2.38,10.63,5.81-9.22c5.32-8.44,13.61-20.65,24.61-36.29l.2-.28.31-.16a179.45,179.45,0,0,1,81-19.58c1.32,0,2.61,0,3.85,0,25.45.59,47.37,6.9,60.16,17.33l1.62,1.32-1.85,1c-62.62,33.56-77.42,52.61-90.48,69.43l-.81,1-.41.14c-10.52,3.49-22.15,7.19-34.56,11l-13.77,4.23,13.73,4.35c3.23,1,7.93,2.46,12.43,3.83L295.87,294c-47.57,36.56-133.58,63.79-150.33,68.88l-1.31.4-.86,1.05C119.12,393.86,105,417.46,100,426.47ZM331.92,215.6A570.42,570.42,0,0,0,158.19,347l-11.37,12.71L163,354.28c29.32-9.9,84.1-30.28,121.5-55.54l7.68-5.19-8.83-2.82c-10.79-3.45-15.73-5.12-20.67-6.83l4.22-1.24c1-.3,25.18-7.39,50.73-15.83l1.3-.43.84-1.08c12.32-15.86,26.29-33.83,82.19-64.77l7.28-4-7.35-3.88c-13.55-7.16-33.2-11.26-53.91-11.26A176.37,176.37,0,0,0,269.74,200l-1,.51-.66.93c-10.62,15.11-24.26,35-28.94,43.83l-.87,1.65-1.34-1.31c-3.08-3-6.77-9.19-6.82-21.46l0-9.82-7.41,6.45c-34.91,30.36-58.89,85.29-70.08,115.33l7.54,4.6A574.43,574.43,0,0,1,330.72,213.08Z" transform="translate(-42.48 -1.85)"/>
    </g>
  </g>
</svg>
