<svg xmlns="http://www.w3.org/2000/svg" viewBox="0 0 475.37 475.37">
  <defs>
    <style>
      .cls-1 {
        fill: #e8e5de;
      }

      .cls-2 {
        fill: #212529;
      }
    </style>
  </defs>
  <title>draft</title>
  <g id="Layer_4" data-name="Layer 4">
    <path class="cls-1" d="M445.87,235.14c15.93-49.11,15.95-98.87,5.43-149-4-18.85-11.9-35.51-26.15-48.89-8.28-7.79-17.95-13.34-27.7-19-28.37-16.48-58.37-21.75-90.56-15-15.32,3.19-30.68,6.41-46.17,8.49-13.14,1.76-26.54,1.48-39.72,3-7.09.79-14,3.42-21,5.17-2.89.74-5.87,2.14-8.68,1.89-12.86-1.13-25.17.6-36.64,6.52-7.46,3.85-15,7.87-21.75,12.79-32,23.17-59.19,51.26-83.54,82.17-13,16.5-23.36,34.5-28.18,55.28-3.45,14.87-3.73,30-2.61,45,2.88,38.45.36,76.52-6.38,114.4-4.91,27.64,1.69,52.7,18.37,74.93,13.7,18.26,30,33.37,52.8,40,25.63,7.41,51.7,12.49,78,16.47,19,2.86,37.14.64,54.48-7.67,10.4-5,20.85-9.84,31.15-15,22.31-11.24,44.64-22.5,64.95-37.26,18.54-13.46,37.25-26.73,55.43-40.69,7.18-5.51,14.34-11.83,19.39-19.23,17.55-25.78,35.1-51.67,46.33-81.12C437.46,257.25,442.22,246.38,445.87,235.14Z"/>
    <path class="cls-2" d="M14,470.49V96.67L97.14,13.48h258V167.94l68.5-68.5a15.58,15.58,0,0,1,22,0L465,118.78a15.56,15.56,0,0,1,0,22L355.15,250.68V470.49Zm3.8-3.8H351.35V254.48l-64,64-62.06,20.69L246,277.07,351.35,171.73V17.28H99.82V99.35H17.76ZM231.33,333.13,282.84,316,248.5,281.62Zm19-55,36,36L432.3,168.16l-36-36ZM434.66,98.68a11.69,11.69,0,0,0-8.32,3.44L399,129.47l36,36,27.35-27.35a11.77,11.77,0,0,0,0-16.65L443,102.12A11.7,11.7,0,0,0,434.66,98.68ZM20.44,95.55H96V20Z"/>
    <path class="cls-2" d="M113.15,328.59a61.53,61.53,0,0,1-3.35-123c1.14-.06,2.28-.09,3.41-.09a61.59,61.59,0,0,1,61.46,61.53v15.8a14.57,14.57,0,0,1-27.25,7.19l-3-5.34-4.28,4.41a31.63,31.63,0,1,1,9-22.06v15.8a11,11,0,0,0,22.05,0v-15.8a58.06,58.06,0,0,0-57.93-58c-1.06,0-2.14,0-3.2.09-29.14,1.55-53.18,25.59-54.73,54.73A58,58,0,0,0,113.15,325h72.62v3.55ZM117.41,239a28.1,28.1,0,1,0,28.1,28.09A28.12,28.12,0,0,0,117.41,239Z"/>
    <rect class="cls-2" x="177.5" y="53.59" width="74.4" height="3.56"/>
    <rect class="cls-2" x="177.5" y="83.89" width="125.62" height="3.56"/>
  </g>
</svg>
