<svg xmlns="http://www.w3.org/2000/svg" viewBox="0 0 462.84 464.34">
  <defs>
    <style>
      .cls-1 {
        fill: #e5d4d3;
      }

      .cls-2 {
        fill: #212529;
      }
    </style>
  </defs>
  <title>received</title>
  <g id="Capa_1" data-name="Capa 1">
    <path class="cls-1" d="M79.46,465.63c13.08,2.75,26.82,2.33,40.27,3.33,0-.85.07-1.71.1-2.56,11.3,0,22.66.71,33.9-.15,24.78-1.88,49.46-5.89,74.25-6.57,29-.78,56.42-5.87,82.78-17.86,6.3-2.87,13.35-4.48,20.24-5.6,24.63-4,47.85-11.09,69-25.09,23.44-15.51,39-35.23,44.25-63.75a408.52,408.52,0,0,0,5-111.12c-1.33-15-3.43-30-4.42-45-1.49-22.57,2.94-44.76,5.65-67,2-16,4.38-32.1.45-48.08-7.6-30.9-24.6-54.42-55.79-64.53-18.54-6-38.2-7.24-57.57-5-39.84,4.59-78.72,13.67-115.89,28.89-27.84,11.41-53.93,26.32-78.81,43.15-9.26,6.25-17.33,14.38-25.48,22.14-5.38,5.13-8.77,11.49-18.15,12.25-6.21.49-12.41,6.09-17.88,10.34-21.59,16.8-36.33,37.72-40.3,65.7a407.23,407.23,0,0,0-1.36,99.52c3.09,29.73,1.08,58.47-11.21,86.14-3,6.67-4.61,14-6.35,21.12-2.85,11.74-.69,22.77,5.53,33.1C39.58,448.72,57.3,461,79.46,465.63Z" transform="translate(-5.1 -4.62)"/>
    <path class="cls-2" d="M35.12,468.64a30.06,30.06,0,0,1-30-30v-254a30.13,30.13,0,0,1,12.07-24.06L218,10.71a31.16,31.16,0,0,1,37,0L455.88,160.54A30.16,30.16,0,0,1,468,184.6v254a30.06,30.06,0,0,1-30,30Zm201-162.3a25.28,25.28,0,0,0-15,5L18.77,460.06l8.63,2.76a25.3,25.3,0,0,0,7.72,1.2h402.8a25.31,25.31,0,0,0,7.78-1.22l8.63-2.77L251.11,311.27A25.27,25.27,0,0,0,236.1,306.34ZM9.72,438.62A25.32,25.32,0,0,0,13.54,452l2.64,4.25L187.29,330.4,9.72,202.91Zm275.64-108L456.91,456.2l2.63-4.25a25.33,25.33,0,0,0,3.79-13.33V202.91Zm-49.25-28.91a29.81,29.81,0,0,1,17.73,5.84l27.6,20.2L463.33,197.23V184.6a25.52,25.52,0,0,0-10.21-20.36L252.27,14.41a26.48,26.48,0,0,0-31.49,0L19.93,164.23A25.53,25.53,0,0,0,9.72,184.6v12.63L191.2,327.53l27.12-19.94A29.78,29.78,0,0,1,236.11,301.71Z" transform="translate(-5.1 -4.62)"/>
    <path class="cls-2" d="M236.52,271.86a94.7,94.7,0,1,1,94.7-94.69A94.8,94.8,0,0,1,236.52,271.86Zm0-184.77a90.08,90.08,0,1,0,90.08,90.08A90.18,90.18,0,0,0,236.52,87.09Z" transform="translate(-5.1 -4.62)"/>
    <polygon class="cls-2" points="183.21 183.9 186.45 180.61 210.63 204.41 276.4 139.06 279.66 142.33 210.64 210.9 183.21 183.9"/>
  </g>
</svg>
