<svg xmlns="http://www.w3.org/2000/svg" viewBox="0 0 475.37 475.37">
  <defs>
    <style>
      .cls-1 {
        fill: #e8e5de;
      }

      .cls-2 {
        fill: #212529;
      }
    </style>
  </defs>
  <title>refresh</title>
  <g id="Layer_2" data-name="Layer 2">
    <g id="Outline">
      <path class="cls-1" d="M443,199.22c-21.45-22.8-34.22-49.48-36.82-81.13A201.53,201.53,0,0,0,393.34,63,51,51,0,0,0,373,37.47c-29.63-19-61.86-27.21-97.1-23.29C253.72,16.64,233.37,24.72,213,33.09c-11.36,4.68-21.25,11.64-31.15,18.84-4.8,3.5-11.64,5-17.74,5.71-7.73.87-15.7-.68-23.47,0C108.09,60.35,79.6,72,58.51,98.05,34.61,127.52,19.9,161.44,12.3,198.4c-5,24.26-5.46,49-6,73.68-.44,19.6.14,39.17,4.6,58.33,5,21.38,16.25,38.79,35.56,49.83C62.86,389.6,79.8,398,96.55,406.8a123.34,123.34,0,0,0,37.61,12.9c16,2.59,30.81,8.54,45.29,15.57,18,8.74,35.94,17.78,54.38,25.53,28.48,12,57.84,16.46,88.25,7.15a274.57,274.57,0,0,0,50-20.89c28.21-15.21,48.46-37.59,61-66.88C441.9,359.7,450,339,459,317.16c2-7.32,4.91-15.7,6.65-24.32C472.56,258.21,468.41,226.21,443,199.22Z"/>
      <path class="cls-2" d="M236,453.26a205.16,205.16,0,0,1-129.17-45.12A208.77,208.77,0,0,1,34.64,295.87l-.55-2.23,2.23-.56a27.13,27.13,0,0,1,31.89,16.67C94.4,378.86,161.84,425.3,236,425.3c69,0,130.71-38.2,160.93-99.71L402,315.22l-23.54,8.86a25.5,25.5,0,0,1-9,1.64,25.8,25.8,0,0,1-24-16.62l-.81-2.15,88.11-33.15,33.15,88.11-2.15.81a25.69,25.69,0,0,1-9.05,1.66h0a25.74,25.74,0,0,1-24-16.64L424.9,332.3l-4.73,9.12A206.76,206.76,0,0,1,236,453.26ZM41.32,303C66.79,390.11,145,448.66,236,448.66A202.66,202.66,0,0,0,422.83,325l2.24-5.29L435,346.12a21.08,21.08,0,0,0,18.23,13.6l7.12.51-30.29-80.51L349.57,310l5.07,5a21.06,21.06,0,0,0,6.13,4.21,20.95,20.95,0,0,0,16.12.53l32.74-12.32-1.84,4.79a184.13,184.13,0,0,1-343.88-.86,22.54,22.54,0,0,0-17.47-14.21L39.29,296Z"/>
      <path class="cls-2" d="M8.9,94.37l2.15-.81a25.65,25.65,0,0,1,33.05,15L49.9,124l4.74-9.12a207.53,207.53,0,0,1,385.52,45.55l.55,2.23-2.23.55a27.13,27.13,0,0,1-31.89-16.67C380.4,77.41,313,31,238.79,31c-69,0-130.72,38.21-160.93,99.71l-5.1,10.37L96.3,132.2a25.51,25.51,0,0,1,9-1.65,25.81,25.81,0,0,1,24,16.63l.81,2.15L42.05,182.48Zm35.83,82.19,80.5-30.29-5.08-5a21,21,0,0,0-22.23-4.75L65.17,148.82,67,144a184.14,184.14,0,0,1,343.88.85,22.55,22.55,0,0,0,17.47,14.22l7.16,1.15-2-7C408,66.16,329.77,7.62,238.79,7.62A202.64,202.64,0,0,0,52,131.29l-2.25,5.28-9.94-26.41a21.06,21.06,0,0,0-18.23-13.6l-7.12-.51Z"/>
      <path class="cls-2" d="M201,362.23a15.91,15.91,0,0,1-11.35-4.71L107.4,275.24a16.07,16.07,0,0,1,0-22.7l155-155a16.08,16.08,0,0,1,22.7,0l82.29,82.29a16.05,16.05,0,0,1,0,22.7l-155,155A15.94,15.94,0,0,1,201,362.23ZM104.72,264.8l5.14,6.31a10.82,10.82,0,0,0,.79.88l88.26,88.26,3.43-109Zm155.73-67.66L256.32,227a22.93,22.93,0,0,1-19.5,19.49L207,250.63l-3.44,109.26L369.71,193.7ZM106.52,259.91l129.67-18a18.31,18.31,0,0,0,15.57-15.57l18-129.67Zm154.57-67.39,109-3.43-88.26-88.26c-.27-.27-.57-.54-.88-.8l-6.31-5.12Z"/>
    </g>
  </g>
</svg>
