<svg id="Layer_1" data-name="Layer 1" xmlns="http://www.w3.org/2000/svg" viewBox="0 0 800 800">
  <defs>
    <style>
      .cls-1 {
        fill: #00ac47;
      }

      .cls-2 {
        fill: #4285f4;
      }

      .cls-3 {
        fill: #ffba00;
      }

      .cls-4 {
        fill: #ea4435;
      }
    </style>
  </defs>
  <title>Google Logo</title>
  <g>
    <path class="cls-1" d="M600.88,379.48C601,492,509.81,583.27,397.29,583.34A203.72,203.72,0,0,1,205.45,448.56L88.84,541.84C178.42,712.13,389.09,777.55,559.37,688A348.39,348.39,0,0,0,745.56,379.48"/>
    <path class="cls-2" d="M600.88,379.48a203.58,203.58,0,0,1-85.53,165.69L630.63,637.4A347.36,347.36,0,0,0,745.56,379.48"/>
    <path class="cls-3" d="M193.15,379.48a202.5,202.5,0,0,1,12.3-69.08L88.84,217.12a346.66,346.66,0,0,0,0,324.72l116.61-93.28A202.5,202.5,0,0,1,193.15,379.48Z"/>
    <path class="cls-4" d="M397,175.61A202.55,202.55,0,0,1,516.92,215l106.8-99.68C478.31-10.09,258.8,6.15,133.43,151.56a347.22,347.22,0,0,0-44.59,65.56L205.45,310.4A204,204,0,0,1,397,175.61Z"/>
    <path class="cls-2" d="M745.56,353.17v26.31l-59.18,92.07H410.17V326.87H719.26A26.3,26.3,0,0,1,745.56,353.17Z"/>
  </g>
</svg>
