<svg id="Layer_1" data-name="Layer 1" xmlns="http://www.w3.org/2000/svg" viewBox="0 0 800 800">
  <defs>
    <style>
      .cls-1 {
        fill: #e5d4d3;
      }

      .cls-2 {
        fill: #212529;
      }
    </style>
  </defs>
  <title>Right Quote</title>
  <path class="cls-1" d="M221.63,605a107.15,107.15,0,0,0,52.81-27.9c5.79-5.52,11.4-11.36,17.76-16.16,7.12-5.38,14.6-3.78,19.88,3.34,3.88,5.22,7.58,10.57,11.27,15.93,17.06,24.88,34.63,49.32,56.45,70.4,31.55,30.5,68.95,46,113,44.25,30.2-1.21,57.75-11,83-27.46l1.07,1.45c33.51-25.73,67.58-50.8,100.38-77.42,26.86-21.8,43.64-50.66,51.91-84.43,4.34-17.72,1.1-33.62-10.27-47.7-4.19-5.19-8.72-10.56-14.2-14.16-16.25-10.71-33-20.67-49.68-30.75q-9.18-5.55-18.8-10.35c-24.32-12.15-38-32.14-43.27-58.37-4.56-22.52-8.92-45.09-13.78-67.54-7.07-32.6-18.87-63-40.84-88.91S489.92,146,455.18,143.82c-10.38-.66-20.82-.35-31.2-1.08-20.37-1.43-36,6.44-48.46,22.4-10.28,13.13-23,23.83-38.88,29.64C303.15,207,269.08,212,234.05,201.11a209.89,209.89,0,0,0-58.9-9.38c-11.24-.2-21.23,2.85-29,10.84-11.84,12.19-19.08,26.69-19.55,44.11a212.06,212.06,0,0,0,8.74,66.8,209.66,209.66,0,0,0,10.86,27.79c2.87,6.24,7.41,11.25,15.44,11,1.08,0,2.54,1.4,3.26,2.51,9.71,14.88,19.3,29.87,29,44.77,3.74,5.74,4.85,12,1.6,17.9-5.85,10.55-11.83,21.16-19,30.79-10.5,14-22.36,27.06-33.18,40.88-14.06,18-15.79,38-8.18,59.06a143.75,143.75,0,0,0,7.68,17.21C158.68,596.09,189.3,611.77,221.63,605Z"/>
  <g id="Quotemarks-right">
    <path class="cls-2" d="M228.21,626.66a3.33,3.33,0,0,1-2.24-.87c-5.64-5.12-9.55-9.1-18.1-17.8l-.46-.47c-6.79-6.91-16.08-16.37-31.18-31.47a3.34,3.34,0,0,1-.39-4.26c38.87-56.44,39.82-97.62,38.42-112.71l-.55-6-6-.34A139.88,139.88,0,0,1,76,313.15c0-77.09,62.72-139.81,139.81-139.81,75.12,0,133.91,58.7,139.8,139.57,10.33,141.57-61,257.05-125.21,312.93A3.32,3.32,0,0,1,228.21,626.66ZM215.81,180C142.4,180,82.69,239.75,82.69,313.15S142.4,446.28,215.81,446.28a3.71,3.71,0,0,1,3.09,2C222,454.31,229,502.35,186,568.57L183,573.31l4,4c11.61,11.66,19.3,19.48,25.6,25.89l.63.65c4.35,4.42,7.49,7.61,10.22,10.31l4.84,4.77,4.91-4.7C263.35,585.31,361,478.14,349,313.39,343.31,236.12,287.32,180,215.81,180Z"/>
    <path class="cls-2" d="M595.59,626.66a3.34,3.34,0,0,1-2.26-.88c-5.75-5.21-9.67-9.21-18.26-18l-1.52-1.54c-6.65-6.76-15.75-16-29.95-30.22a3.34,3.34,0,0,1-.4-4.26c38.9-56.48,39.85-97.64,38.45-112.71l-.56-6-6-.34A139.88,139.88,0,0,1,443.37,313.15c0-77.09,62.72-139.81,139.81-139.81,75.05,0,133.82,58.6,139.8,139.36l0,.21C733.32,454.48,662,570,597.78,625.83A3.3,3.3,0,0,1,595.59,626.66ZM583.18,180c-73.4,0-133.13,59.72-133.13,133.12s59.73,133.13,133.13,133.13a3.72,3.72,0,0,1,3.11,2c3.07,6.07,10.07,54.12-32.89,120.33l-3.08,4.75,4,4c11.25,11.28,18.93,19.1,24.54,24.81l1,1c4.52,4.61,8,8.1,10.93,11l4.85,4.78,4.91-4.7c30.2-28.93,127.8-136.09,115.8-300.85h0C710.68,236.12,654.68,180,583.18,180Z"/>
  </g>
</svg>
