<svg id="Layer_1" data-name="Layer 1" xmlns="http://www.w3.org/2000/svg" xmlns:xlink="http://www.w3.org/1999/xlink" viewBox="0 0 800 800">
  <defs>
    <style>
      .cls-1 {
        fill: none;
      }

      .cls-2 {
        clip-path: url(#clip-path);
      }

      .cls-3 {
        stroke: #000;
        stroke-miterlimit: 10;
      }
    </style>
    <clipPath id="clip-path">
      <circle class="cls-1" cx="394.95" cy="388.33" r="346.67"/>
    </clipPath>
  </defs>
  <title>Tiktok Logo</title>
  <g class="cls-2">
    <path class="cls-3" d="M719.11,35h-657a36.51,36.51,0,0,0-36.5,36.51v657A36.51,36.51,0,0,0,62.06,765H719.11a36.51,36.51,0,0,0,36.5-36.51v-657A36.51,36.51,0,0,0,719.11,35ZM599.34,353.46h0c-4,.4-8,.58-12,.62A130.34,130.34,0,0,1,478.19,295.2V495.71a148.24,148.24,0,1,1-148.27-148.2H330c3.1,0,6.1.29,9.16.47v73A75.45,75.45,0,1,0,330,571.34a77.5,77.5,0,0,0,78.85-74.64l.73-340.61h69.86A130.11,130.11,0,0,0,599.34,272.24Z"/>
  </g>
</svg>
